<mxfile host="app.diagrams.net" agent="Mozilla/5.0 (Windows NT 10.0; Win64; x64) AppleWebKit/537.36 (KHTML, like Gecko) Chrome/133.0.0.0 Safari/537.36 Edg/133.0.0.0" version="26.0.15">
  <diagram name="Page-1" id="EN0yblhM6q4TOCpWbbAo">
    <mxGraphModel dx="1342" dy="734" grid="1" gridSize="10" guides="1" tooltips="1" connect="1" arrows="1" fold="1" page="1" pageScale="1" pageWidth="850" pageHeight="1100" math="0" shadow="0">
      <root>
        <mxCell id="0" />
        <mxCell id="1" parent="0" />
        <mxCell id="rTDkeBHZNupIcN8XmG9D-32" value="" style="shape=or;whiteSpace=wrap;html=1;" vertex="1" parent="1">
          <mxGeometry x="120" y="40" width="120" height="160" as="geometry" />
        </mxCell>
        <mxCell id="rTDkeBHZNupIcN8XmG9D-33" value="" style="shape=or;whiteSpace=wrap;html=1;" vertex="1" parent="1">
          <mxGeometry x="120" y="560" width="120" height="160" as="geometry" />
        </mxCell>
        <mxCell id="rTDkeBHZNupIcN8XmG9D-34" value="" style="shape=or;whiteSpace=wrap;html=1;" vertex="1" parent="1">
          <mxGeometry x="120" y="390" width="120" height="160" as="geometry" />
        </mxCell>
        <mxCell id="rTDkeBHZNupIcN8XmG9D-35" value="" style="shape=or;whiteSpace=wrap;html=1;" vertex="1" parent="1">
          <mxGeometry x="120" y="220" width="120" height="160" as="geometry" />
        </mxCell>
        <mxCell id="rTDkeBHZNupIcN8XmG9D-36" style="edgeStyle=orthogonalEdgeStyle;rounded=0;orthogonalLoop=1;jettySize=auto;html=1;exitX=1;exitY=0.5;exitDx=0;exitDy=0;exitPerimeter=0;entryX=0.175;entryY=0.25;entryDx=0;entryDy=0;entryPerimeter=0;" edge="1" parent="1" source="rTDkeBHZNupIcN8XmG9D-37" target="rTDkeBHZNupIcN8XmG9D-41">
          <mxGeometry relative="1" as="geometry">
            <mxPoint x="730" y="290" as="targetPoint" />
          </mxGeometry>
        </mxCell>
        <mxCell id="rTDkeBHZNupIcN8XmG9D-37" value="" style="shape=xor;whiteSpace=wrap;html=1;" vertex="1" parent="1">
          <mxGeometry x="310" y="140" width="130" height="140" as="geometry" />
        </mxCell>
        <mxCell id="rTDkeBHZNupIcN8XmG9D-38" style="edgeStyle=orthogonalEdgeStyle;rounded=0;orthogonalLoop=1;jettySize=auto;html=1;exitX=1;exitY=0.5;exitDx=0;exitDy=0;exitPerimeter=0;entryX=0.175;entryY=0.25;entryDx=0;entryDy=0;entryPerimeter=0;" edge="1" parent="1" source="rTDkeBHZNupIcN8XmG9D-32" target="rTDkeBHZNupIcN8XmG9D-37">
          <mxGeometry relative="1" as="geometry" />
        </mxCell>
        <mxCell id="rTDkeBHZNupIcN8XmG9D-39" style="edgeStyle=orthogonalEdgeStyle;rounded=0;orthogonalLoop=1;jettySize=auto;html=1;exitX=1;exitY=0.5;exitDx=0;exitDy=0;exitPerimeter=0;entryX=0.25;entryY=0.5;entryDx=0;entryDy=0;entryPerimeter=0;" edge="1" parent="1" source="rTDkeBHZNupIcN8XmG9D-35" target="rTDkeBHZNupIcN8XmG9D-37">
          <mxGeometry relative="1" as="geometry" />
        </mxCell>
        <mxCell id="rTDkeBHZNupIcN8XmG9D-40" style="edgeStyle=orthogonalEdgeStyle;rounded=0;orthogonalLoop=1;jettySize=auto;html=1;exitX=1;exitY=0.5;exitDx=0;exitDy=0;exitPerimeter=0;" edge="1" parent="1" source="rTDkeBHZNupIcN8XmG9D-41">
          <mxGeometry relative="1" as="geometry">
            <mxPoint x="780" y="374.9230769230769" as="targetPoint" />
          </mxGeometry>
        </mxCell>
        <mxCell id="rTDkeBHZNupIcN8XmG9D-41" value="" style="shape=xor;whiteSpace=wrap;html=1;" vertex="1" parent="1">
          <mxGeometry x="570" y="280" width="160" height="190" as="geometry" />
        </mxCell>
        <mxCell id="rTDkeBHZNupIcN8XmG9D-42" style="edgeStyle=orthogonalEdgeStyle;rounded=0;orthogonalLoop=1;jettySize=auto;html=1;exitX=1;exitY=0.5;exitDx=0;exitDy=0;exitPerimeter=0;entryX=0.175;entryY=0.75;entryDx=0;entryDy=0;entryPerimeter=0;" edge="1" parent="1" source="rTDkeBHZNupIcN8XmG9D-43" target="rTDkeBHZNupIcN8XmG9D-41">
          <mxGeometry relative="1" as="geometry">
            <mxPoint x="710" y="440" as="targetPoint" />
          </mxGeometry>
        </mxCell>
        <mxCell id="rTDkeBHZNupIcN8XmG9D-43" value="" style="shape=xor;whiteSpace=wrap;html=1;" vertex="1" parent="1">
          <mxGeometry x="340" y="470" width="110" height="140" as="geometry" />
        </mxCell>
        <mxCell id="rTDkeBHZNupIcN8XmG9D-44" style="edgeStyle=orthogonalEdgeStyle;rounded=0;orthogonalLoop=1;jettySize=auto;html=1;exitX=1;exitY=0.5;exitDx=0;exitDy=0;exitPerimeter=0;entryX=0.175;entryY=0.25;entryDx=0;entryDy=0;entryPerimeter=0;" edge="1" parent="1" source="rTDkeBHZNupIcN8XmG9D-34" target="rTDkeBHZNupIcN8XmG9D-43">
          <mxGeometry relative="1" as="geometry" />
        </mxCell>
        <mxCell id="rTDkeBHZNupIcN8XmG9D-45" style="edgeStyle=orthogonalEdgeStyle;rounded=0;orthogonalLoop=1;jettySize=auto;html=1;exitX=1;exitY=0.5;exitDx=0;exitDy=0;exitPerimeter=0;entryX=0.25;entryY=0.5;entryDx=0;entryDy=0;entryPerimeter=0;" edge="1" parent="1" source="rTDkeBHZNupIcN8XmG9D-33" target="rTDkeBHZNupIcN8XmG9D-43">
          <mxGeometry relative="1" as="geometry" />
        </mxCell>
        <mxCell id="rTDkeBHZNupIcN8XmG9D-49" style="edgeStyle=orthogonalEdgeStyle;rounded=0;orthogonalLoop=1;jettySize=auto;html=1;entryX=-0.025;entryY=0.588;entryDx=0;entryDy=0;entryPerimeter=0;" edge="1" parent="1">
          <mxGeometry relative="1" as="geometry">
            <mxPoint x="120" y="135" as="sourcePoint" />
            <mxPoint x="40" y="134.8723404255319" as="targetPoint" />
          </mxGeometry>
        </mxCell>
        <mxCell id="rTDkeBHZNupIcN8XmG9D-51" style="edgeStyle=orthogonalEdgeStyle;rounded=0;orthogonalLoop=1;jettySize=auto;html=1;exitX=0;exitY=0.5;exitDx=0;exitDy=0;" edge="1" parent="1">
          <mxGeometry relative="1" as="geometry">
            <mxPoint x="120" y="95" as="sourcePoint" />
            <mxPoint x="40" y="94.87234042553189" as="targetPoint" />
          </mxGeometry>
        </mxCell>
        <mxCell id="rTDkeBHZNupIcN8XmG9D-53" value="" style="endArrow=classic;html=1;rounded=0;exitX=0;exitY=0.75;exitDx=0;exitDy=0;exitPerimeter=0;" edge="1" parent="1">
          <mxGeometry width="50" height="50" relative="1" as="geometry">
            <mxPoint x="120" y="170" as="sourcePoint" />
            <mxPoint x="40" y="170" as="targetPoint" />
            <Array as="points" />
          </mxGeometry>
        </mxCell>
        <mxCell id="rTDkeBHZNupIcN8XmG9D-55" value="a[2]" style="text;html=1;align=center;verticalAlign=middle;resizable=0;points=[];autosize=1;strokeColor=none;fillColor=none;" vertex="1" parent="1">
          <mxGeometry x="30" y="68" width="40" height="30" as="geometry" />
        </mxCell>
        <mxCell id="rTDkeBHZNupIcN8XmG9D-56" value="a[1]" style="text;html=1;align=center;verticalAlign=middle;resizable=0;points=[];autosize=1;strokeColor=none;fillColor=none;" vertex="1" parent="1">
          <mxGeometry x="30" y="110" width="40" height="30" as="geometry" />
        </mxCell>
        <mxCell id="rTDkeBHZNupIcN8XmG9D-57" value="a[0]" style="text;html=1;align=center;verticalAlign=middle;resizable=0;points=[];autosize=1;strokeColor=none;fillColor=none;" vertex="1" parent="1">
          <mxGeometry x="30" y="140" width="40" height="30" as="geometry" />
        </mxCell>
        <mxCell id="rTDkeBHZNupIcN8XmG9D-58" style="edgeStyle=orthogonalEdgeStyle;rounded=0;orthogonalLoop=1;jettySize=auto;html=1;exitX=0;exitY=0.5;exitDx=0;exitDy=0;entryX=0;entryY=0.5;entryDx=0;entryDy=0;" edge="1" parent="1" target="rTDkeBHZNupIcN8XmG9D-59">
          <mxGeometry relative="1" as="geometry">
            <mxPoint x="40" y="245.08510638297872" as="sourcePoint" />
          </mxGeometry>
        </mxCell>
        <mxCell id="rTDkeBHZNupIcN8XmG9D-59" value="" style="ellipse;whiteSpace=wrap;html=1;aspect=fixed;" vertex="1" parent="1">
          <mxGeometry x="110" y="240" width="10" height="10" as="geometry" />
        </mxCell>
        <mxCell id="rTDkeBHZNupIcN8XmG9D-60" style="edgeStyle=orthogonalEdgeStyle;rounded=0;orthogonalLoop=1;jettySize=auto;html=1;exitX=0;exitY=0.5;exitDx=0;exitDy=0;entryX=0;entryY=0.5;entryDx=0;entryDy=0;" edge="1" parent="1" target="rTDkeBHZNupIcN8XmG9D-61">
          <mxGeometry relative="1" as="geometry">
            <mxPoint x="40" y="315" as="sourcePoint" />
          </mxGeometry>
        </mxCell>
        <mxCell id="rTDkeBHZNupIcN8XmG9D-61" value="" style="ellipse;whiteSpace=wrap;html=1;aspect=fixed;" vertex="1" parent="1">
          <mxGeometry x="110" y="310" width="10" height="10" as="geometry" />
        </mxCell>
        <mxCell id="rTDkeBHZNupIcN8XmG9D-62" style="edgeStyle=orthogonalEdgeStyle;rounded=0;orthogonalLoop=1;jettySize=auto;html=1;entryX=0;entryY=0.5;entryDx=0;entryDy=0;" edge="1" parent="1">
          <mxGeometry relative="1" as="geometry">
            <mxPoint x="40" y="360" as="sourcePoint" />
            <mxPoint x="120.00000000000006" y="360.13" as="targetPoint" />
          </mxGeometry>
        </mxCell>
        <mxCell id="rTDkeBHZNupIcN8XmG9D-64" value="" style="endArrow=classic;html=1;rounded=0;exitX=0;exitY=0.375;exitDx=0;exitDy=0;exitPerimeter=0;" edge="1" parent="1">
          <mxGeometry width="50" height="50" relative="1" as="geometry">
            <mxPoint x="50" y="274.79" as="sourcePoint" />
            <mxPoint x="110" y="274.79" as="targetPoint" />
            <Array as="points" />
          </mxGeometry>
        </mxCell>
        <mxCell id="rTDkeBHZNupIcN8XmG9D-65" value="a[3]" style="text;html=1;align=center;verticalAlign=middle;resizable=0;points=[];autosize=1;strokeColor=none;fillColor=none;" vertex="1" parent="1">
          <mxGeometry x="50" y="218" width="40" height="30" as="geometry" />
        </mxCell>
        <mxCell id="rTDkeBHZNupIcN8XmG9D-66" value="a[2]" style="text;html=1;align=center;verticalAlign=middle;resizable=0;points=[];autosize=1;strokeColor=none;fillColor=none;" vertex="1" parent="1">
          <mxGeometry x="50" y="250" width="40" height="30" as="geometry" />
        </mxCell>
        <mxCell id="rTDkeBHZNupIcN8XmG9D-67" value="a[1]" style="text;html=1;align=center;verticalAlign=middle;resizable=0;points=[];autosize=1;strokeColor=none;fillColor=none;" vertex="1" parent="1">
          <mxGeometry x="40" y="288" width="40" height="30" as="geometry" />
        </mxCell>
        <mxCell id="rTDkeBHZNupIcN8XmG9D-68" value="a[0]" style="text;html=1;align=center;verticalAlign=middle;resizable=0;points=[];autosize=1;strokeColor=none;fillColor=none;" vertex="1" parent="1">
          <mxGeometry x="50" y="330" width="40" height="30" as="geometry" />
        </mxCell>
        <mxCell id="rTDkeBHZNupIcN8XmG9D-69" style="edgeStyle=orthogonalEdgeStyle;rounded=0;orthogonalLoop=1;jettySize=auto;html=1;exitX=0;exitY=0.5;exitDx=0;exitDy=0;entryX=0;entryY=0.5;entryDx=0;entryDy=0;" edge="1" parent="1" target="rTDkeBHZNupIcN8XmG9D-70">
          <mxGeometry relative="1" as="geometry">
            <mxPoint x="50" y="474.8723404255319" as="sourcePoint" />
          </mxGeometry>
        </mxCell>
        <mxCell id="rTDkeBHZNupIcN8XmG9D-70" value="" style="ellipse;whiteSpace=wrap;html=1;aspect=fixed;" vertex="1" parent="1">
          <mxGeometry x="110" y="470" width="10" height="10" as="geometry" />
        </mxCell>
        <mxCell id="rTDkeBHZNupIcN8XmG9D-71" value="" style="endArrow=classic;html=1;rounded=0;exitX=-0.003;exitY=0.844;exitDx=0;exitDy=0;exitPerimeter=0;entryX=-0.003;entryY=0.844;entryDx=0;entryDy=0;entryPerimeter=0;" edge="1" parent="1">
          <mxGeometry width="50" height="50" relative="1" as="geometry">
            <mxPoint x="40.36" y="522.48" as="sourcePoint" />
            <mxPoint x="110.00000000000004" y="523.52" as="targetPoint" />
            <Array as="points">
              <mxPoint x="90.36" y="523.48" />
            </Array>
          </mxGeometry>
        </mxCell>
        <mxCell id="rTDkeBHZNupIcN8XmG9D-72" value="" style="endArrow=classic;html=1;rounded=0;exitX=-0.003;exitY=0.844;exitDx=0;exitDy=0;exitPerimeter=0;" edge="1" parent="1">
          <mxGeometry width="50" height="50" relative="1" as="geometry">
            <mxPoint x="40" y="404.5" as="sourcePoint" />
            <mxPoint x="110" y="405.5" as="targetPoint" />
          </mxGeometry>
        </mxCell>
        <mxCell id="rTDkeBHZNupIcN8XmG9D-73" value="" style="endArrow=classic;html=1;rounded=0;exitX=-0.003;exitY=0.844;exitDx=0;exitDy=0;exitPerimeter=0;" edge="1" parent="1">
          <mxGeometry width="50" height="50" relative="1" as="geometry">
            <mxPoint x="50" y="440" as="sourcePoint" />
            <mxPoint x="120" y="441" as="targetPoint" />
          </mxGeometry>
        </mxCell>
        <mxCell id="rTDkeBHZNupIcN8XmG9D-74" value="a[3]" style="text;html=1;align=center;verticalAlign=middle;resizable=0;points=[];autosize=1;strokeColor=none;fillColor=none;" vertex="1" parent="1">
          <mxGeometry x="50" y="380" width="40" height="30" as="geometry" />
        </mxCell>
        <mxCell id="rTDkeBHZNupIcN8XmG9D-75" value="a[2]" style="text;html=1;align=center;verticalAlign=middle;resizable=0;points=[];autosize=1;strokeColor=none;fillColor=none;" vertex="1" parent="1">
          <mxGeometry x="50" y="418" width="40" height="30" as="geometry" />
        </mxCell>
        <mxCell id="rTDkeBHZNupIcN8XmG9D-76" value="a[1]" style="text;html=1;align=center;verticalAlign=middle;resizable=0;points=[];autosize=1;strokeColor=none;fillColor=none;" vertex="1" parent="1">
          <mxGeometry x="50" y="450" width="40" height="30" as="geometry" />
        </mxCell>
        <mxCell id="rTDkeBHZNupIcN8XmG9D-77" value="a[0]" style="text;html=1;align=center;verticalAlign=middle;resizable=0;points=[];autosize=1;strokeColor=none;fillColor=none;" vertex="1" parent="1">
          <mxGeometry x="50" y="498" width="40" height="30" as="geometry" />
        </mxCell>
        <mxCell id="rTDkeBHZNupIcN8XmG9D-78" value="" style="endArrow=classic;html=1;rounded=0;exitX=0.004;exitY=0.13;exitDx=0;exitDy=0;exitPerimeter=0;entryX=0.004;entryY=0.13;entryDx=0;entryDy=0;entryPerimeter=0;" edge="1" parent="1" target="rTDkeBHZNupIcN8XmG9D-33">
          <mxGeometry width="50" height="50" relative="1" as="geometry">
            <mxPoint x="50" y="580" as="sourcePoint" />
            <mxPoint x="150" y="555" as="targetPoint" />
            <Array as="points">
              <mxPoint x="90" y="580" />
            </Array>
          </mxGeometry>
        </mxCell>
        <mxCell id="rTDkeBHZNupIcN8XmG9D-79" style="edgeStyle=orthogonalEdgeStyle;rounded=0;orthogonalLoop=1;jettySize=auto;html=1;exitX=0;exitY=0.5;exitDx=0;exitDy=0;entryX=0;entryY=0.5;entryDx=0;entryDy=0;" edge="1" parent="1" target="rTDkeBHZNupIcN8XmG9D-80">
          <mxGeometry relative="1" as="geometry">
            <mxPoint x="50" y="614.8723404255319" as="sourcePoint" />
          </mxGeometry>
        </mxCell>
        <mxCell id="rTDkeBHZNupIcN8XmG9D-80" value="" style="ellipse;whiteSpace=wrap;html=1;aspect=fixed;fontStyle=1" vertex="1" parent="1">
          <mxGeometry x="110" y="610" width="10" height="10" as="geometry" />
        </mxCell>
        <mxCell id="rTDkeBHZNupIcN8XmG9D-81" value="" style="endArrow=classic;html=1;rounded=0;exitX=-0.007;exitY=0.617;exitDx=0;exitDy=0;exitPerimeter=0;entryX=-0.007;entryY=0.617;entryDx=0;entryDy=0;entryPerimeter=0;" edge="1" parent="1" target="rTDkeBHZNupIcN8XmG9D-33">
          <mxGeometry width="50" height="50" relative="1" as="geometry">
            <mxPoint x="50" y="660" as="sourcePoint" />
            <mxPoint x="130" y="591" as="targetPoint" />
            <Array as="points" />
          </mxGeometry>
        </mxCell>
        <mxCell id="rTDkeBHZNupIcN8XmG9D-82" value="" style="endArrow=classic;html=1;rounded=0;" edge="1" parent="1">
          <mxGeometry width="50" height="50" relative="1" as="geometry">
            <mxPoint x="50" y="693" as="sourcePoint" />
            <mxPoint x="110" y="692.79" as="targetPoint" />
            <Array as="points">
              <mxPoint x="110" y="692.79" />
            </Array>
          </mxGeometry>
        </mxCell>
        <mxCell id="rTDkeBHZNupIcN8XmG9D-83" value="a[3]" style="text;html=1;align=center;verticalAlign=middle;resizable=0;points=[];autosize=1;strokeColor=none;fillColor=none;" vertex="1" parent="1">
          <mxGeometry x="60" y="550" width="40" height="30" as="geometry" />
        </mxCell>
        <mxCell id="rTDkeBHZNupIcN8XmG9D-84" value="a[2]" style="text;html=1;align=center;verticalAlign=middle;resizable=0;points=[];autosize=1;strokeColor=none;fillColor=none;" vertex="1" parent="1">
          <mxGeometry x="50" y="590" width="40" height="30" as="geometry" />
        </mxCell>
        <mxCell id="rTDkeBHZNupIcN8XmG9D-85" value="a[1]" style="text;html=1;align=center;verticalAlign=middle;resizable=0;points=[];autosize=1;strokeColor=none;fillColor=none;" vertex="1" parent="1">
          <mxGeometry x="60" y="638" width="40" height="30" as="geometry" />
        </mxCell>
        <mxCell id="rTDkeBHZNupIcN8XmG9D-86" value="a[0]" style="text;html=1;align=center;verticalAlign=middle;resizable=0;points=[];autosize=1;strokeColor=none;fillColor=none;" vertex="1" parent="1">
          <mxGeometry x="50" y="668" width="40" height="30" as="geometry" />
        </mxCell>
        <mxCell id="rTDkeBHZNupIcN8XmG9D-87" value="&lt;h1&gt;D&lt;/h1&gt;" style="text;html=1;align=center;verticalAlign=middle;resizable=0;points=[];autosize=1;strokeColor=none;fillColor=none;" vertex="1" parent="1">
          <mxGeometry x="780" y="338" width="40" height="70" as="geometry" />
        </mxCell>
        <mxCell id="rTDkeBHZNupIcN8XmG9D-88" value="" style="ellipse;whiteSpace=wrap;html=1;aspect=fixed;" vertex="1" parent="1">
          <mxGeometry x="110" y="270" width="10" height="10" as="geometry" />
        </mxCell>
        <mxCell id="rTDkeBHZNupIcN8XmG9D-89" value="" style="ellipse;whiteSpace=wrap;html=1;aspect=fixed;" vertex="1" parent="1">
          <mxGeometry x="110" y="400" width="10" height="10" as="geometry" />
        </mxCell>
        <mxCell id="rTDkeBHZNupIcN8XmG9D-90" value="" style="ellipse;whiteSpace=wrap;html=1;aspect=fixed;" vertex="1" parent="1">
          <mxGeometry x="110" y="518" width="10" height="10" as="geometry" />
        </mxCell>
        <mxCell id="rTDkeBHZNupIcN8XmG9D-94" value="" style="ellipse;whiteSpace=wrap;html=1;aspect=fixed;" vertex="1" parent="1">
          <mxGeometry x="110" y="688" width="10" height="10" as="geometry" />
        </mxCell>
      </root>
    </mxGraphModel>
  </diagram>
</mxfile>
